# xmcd
#
# Track frame offsets: 
#        183
#        10920
#        30645
#        44720
#        60108
#        75345
#        88698
#        97683
#        111708
#        124458
#        136913
#        150635
#        167283
#        189690
#        207320
#        224200
#        245958
#        262665
#        284945
#        301683
#
# Disc length: 4319 seconds
#
# Revision: 0
# Processed by: cddbd v1.5.2PL0 Copyright (c) Steve Scherf et al.
# Submitted via: ExactAudioCopy v1.3
#
DISCID=1d10dd14
DTITLE=div. - Annie M.G. Schmidt, Tot hier toe
DYEAR=1987
DGENRE=National Folk
TTITLE0=Conny Stuart - Zonder jou
TTITLE1=Emmy Arbous - De Hoelsema's
TTITLE2=Wim Sonneveld - Marjolijne
TTITLE3=Kees Brusse - Vrouwen
TTITLE4=Lia Dorana - Geachte clienten
TTITLE5=Hetty Blok en Joop Vischer - Will you have a cup of tea?
TTITLE6=Sophie Stein - Als je moeder jarig is
TTITLE7=Cees Laseur - Je hoort niet meer bij mij
TTITLE8=Jasperina de Jong - Meneer van Dalen
TTITLE9=Henk van Ulsen - Juffrouw Sanders
TTITLE10=Donald Jones - Ik zou je in een dossje willen doen
TTITLE11=Conny Stuart - Wat voor weer zou het zijn in Den Haag
TTITLE12=Wim Sonneveld - Margootje
TTITLE13=Conny Stuart - Zeur niet
TTITLE14=André van den Heuvel en Leen Jongewaard - Op een mooie Pinste
TTITLE14=rdag
TTITLE15=Nelleke Burg - Alleen uit leed ...
TTITLE16=Jenny Arean en Frans Halsema - Vluchten kan niet meer
TTITLE17=Conny Stuart - Wat een planeet
TTITLE18=Willem Nijholt - Foxtrot
TTITLE19=Conny Stuart - Madam
EXTD=
EXTT0=
EXTT1=
EXTT2=
EXTT3=
EXTT4=
EXTT5=
EXTT6=
EXTT7=
EXTT8=
EXTT9=
EXTT10=
EXTT11=
EXTT12=
EXTT13=
EXTT14=
EXTT15=
EXTT16=
EXTT17=
EXTT18=
EXTT19=
PLAYORDER=
